<?xml version="1.0" encoding="UTF-8"?>
<svg xmlns="http://www.w3.org/2000/svg" xmlns:xlink="http://www.w3.org/1999/xlink" width="100px" height="px" viewBox="0 0 100 100" version="1.1">
<g id="surface1">
<path style=" stroke:none;fill-rule:nonzero;fill:rgb(7.45098%,66.666667%,32.156863%);fill-opacity:1;" d="M 100 50 C 100 77.613281 77.613281 100 50 100 C 22.386719 100 0 77.613281 0 50 C 0 22.386719 22.386719 0 50 0 C 77.613281 0 100 22.386719 100 50 Z M 100 50 "/>
<path style=" stroke:none;fill-rule:nonzero;fill:rgb(100%,100%,100%);fill-opacity:1;" d="M 63.363281 43.890625 C 60.207031 29.953125 52.742188 25.367188 51.9375 23.617188 C 51.058594 22.382812 50.167969 20.1875 50.167969 20.1875 C 50.15625 20.148438 50.132812 20.082031 50.105469 20.019531 C 50.015625 21.253906 49.964844 21.730469 48.796875 22.976562 C 46.988281 24.390625 37.710938 32.179688 36.957031 48.015625 C 36.25 62.78125 47.625 71.585938 49.164062 72.707031 L 49.335938 72.828125 L 49.335938 72.820312 C 49.347656 72.894531 49.828125 76.335938 50.164062 79.980469 L 51.367188 79.980469 C 51.648438 77.402344 52.074219 74.84375 52.636719 72.3125 L 52.734375 72.25 C 53.421875 71.753906 54.078125 71.21875 54.699219 70.640625 L 54.769531 70.578125 C 58.039062 67.558594 63.914062 60.570312 63.859375 49.433594 C 63.847656 47.574219 63.679688 45.722656 63.367188 43.890625 Z M 50.035156 64.367188 C 50.035156 64.367188 50.035156 43.652344 50.71875 43.65625 C 51.25 43.65625 51.941406 70.375 51.941406 70.375 C 50.992188 70.261719 50.035156 65.976562 50.035156 64.367188 Z M 50.035156 64.367188 "/>
</g>
</svg>
